<svg xmlns="http://www.w3.org/2000/svg" version="1.1" xmlns:xlink="http://www.w3.org/1999/xlink" xmlns:svgjs="http://svgjs.dev/svgjs" width="128" height="128" viewBox="0 0 128 128"><g transform="matrix(0.8046875,0,0,0.8046875,12.612792253521128,12.612792253521128)"><svg viewBox="0 0 142 142" data-background-color="#89939e" preserveAspectRatio="xMidYMid meet" height="128" width="128" xmlns="http://www.w3.org/2000/svg" xmlns:xlink="http://www.w3.org/1999/xlink"><g id="tight-bounds" transform="matrix(1,0,0,1,-0.15550000000000352,-0.15550000000000352)"><svg viewBox="0 0 142.31066447748242 142.31066447748242" height="142.31066447748242" width="142.31066447748242"><g><svg></svg></g><g><svg viewBox="0 0 142.31066447748242 142.31066447748242" height="142.31066447748242" width="142.31066447748242"><g><path d="M0 71.155c0-39.298 31.857-71.155 71.155-71.155 39.298 0 71.155 31.857 71.156 71.155 0 39.298-31.857 71.155-71.156 71.156-39.298 0-71.155-31.857-71.155-71.156zM71.155 134.886c35.197 0 63.731-28.533 63.731-63.731 0-35.197-28.533-63.731-63.731-63.73-35.197 0-63.731 28.533-63.73 63.73 0 35.197 28.533 63.731 63.73 63.731z" data-fill-palette-color="tertiary" fill="#000000" stroke="transparent"></path><ellipse rx="68.30911894919156" ry="68.30911894919156" cx="71.15533223874121" cy="71.15533223874121" fill="#000000" stroke="transparent" stroke-width="0" fill-opacity="1" data-fill-palette-color="tertiary"></ellipse></g><g transform="matrix(1,0,0,1,44.11136622840546,29.989108276746492)"><svg viewBox="0 0 54.087932020671495 82.33244792398943" height="82.33244792398943" width="54.087932020671495"><g><svg viewBox="0 0 54.087932020671495 82.33244792398943" height="82.33244792398943" width="54.087932020671495"><g><svg viewBox="0 0 54.087932020671495 82.33244792398943" height="82.33244792398943" width="54.087932020671495"><g id="textblocktransform"><svg viewBox="0 0 54.087932020671495 82.33244792398943" height="82.33244792398943" width="54.087932020671495" id="textblock"><g><svg viewBox="0 0 54.087932020671495 82.33244792398943" height="82.33244792398943" width="54.087932020671495"><g transform="matrix(1,0,0,1,0,0)"><svg width="54.087932020671495" viewBox="3.2 -42.4 42.8 65.14999999999998" height="82.33244792398943" data-palette-color="#89939e"><path d="M44.6-11.05Q45.25-11.05 45.63-10.43 46-9.8 46-8.85L46-8.85Q46-7.7 45.65-7.05 45.3-6.4 44.55-5.9L44.55-5.9Q41.6-3.95 35.15 0.5L35.15 0.5Q33.2 10.85 30.1 16.8 27 22.75 22.25 22.75L22.25 22.75Q19.7 22.75 18.1 21.18 16.5 19.6 16.5 17.05L16.5 17.05Q16.5 14.7 17.55 12.3 18.6 9.9 21.48 6.75 24.35 3.6 29.6-0.45L29.6-0.45 29.75-1.4Q25.8 0.25 22 0.25L22 0.25Q16.4 0.25 12.15-1.93 7.9-4.1 5.55-8.1 3.2-12.1 3.2-17.4L3.2-17.4Q3.2-24.8 6-30.48 8.8-36.15 13.73-39.28 18.65-42.4 24.75-42.4L24.75-42.4Q30.6-42.4 33.52-39.68 36.45-36.95 36.45-32.45L36.45-32.45Q36.45-29.5 35.38-27.73 34.3-25.95 32.3-25.95L32.3-25.95Q30.95-25.95 30.13-26.6 29.3-27.25 29.3-28.4L29.3-28.4Q29.3-28.9 29.5-30.1L29.5-30.1Q29.8-31.5 29.8-32.3L29.8-32.3Q29.8-34.4 28.53-35.55 27.25-36.7 24.25-36.7L24.25-36.7Q20.6-36.7 17.48-34.6 14.35-32.5 12.45-28.33 10.55-24.15 10.55-18.3L10.55-18.3Q10.55-12.3 13.83-9.03 17.1-5.75 23.3-5.75L23.3-5.75Q26.75-5.75 30.5-7.3L30.5-7.3 31.2-13.4 26.1-13.4Q24.7-13.4 23.95-14.08 23.2-14.75 23.2-16.3L23.2-16.3Q23.2-17.7 23.95-18.5 24.7-19.3 25.95-19.3L25.95-19.3 35.3-19.3Q36.4-19.3 37.13-18.57 37.85-17.85 37.7-16.5L37.7-16.5Q37.55-14.9 36.7-9.25L36.7-9.25 36.15-5.45Q40.15-8.45 43.45-10.65L43.45-10.65Q44.1-11.05 44.6-11.05L44.6-11.05ZM22.8 17.9Q24.1 17.9 25.65 14.95 27.2 12 28.55 5.45L28.55 5.45Q24.75 8.7 23.08 11.33 21.4 13.95 21.4 15.95L21.4 15.95Q21.4 17.9 22.8 17.9L22.8 17.9Z" opacity="1" transform="matrix(1,0,0,1,0,0)" fill="#ffffff" class="wordmark-text-0" data-fill-palette-color="quaternary" id="text-0"></path></svg></g></svg></g></svg></g></svg></g></svg></g></svg></g></svg></g><defs></defs></svg><rect width="142.31066447748242" height="142.31066447748242" fill="none" stroke="none" visibility="hidden"></rect></g></svg></g></svg>